<mxfile host="app.diagrams.net" modified="2023-07-13T18:38:00.811Z" agent="Mozilla/5.0 (Windows NT 10.0; Win64; x64) AppleWebKit/537.36 (KHTML, like Gecko) Chrome/114.0.0.0 Safari/537.36" etag="oAfEA9y1MVTvuYLTb9-A" version="21.6.2" type="device">
  <diagram id="R2lEEEUBdFMjLlhIrx00" name="Page-1">
    <mxGraphModel dx="1434" dy="699" grid="1" gridSize="10" guides="1" tooltips="1" connect="1" arrows="1" fold="1" page="1" pageScale="1" pageWidth="850" pageHeight="1100" math="0" shadow="0" extFonts="Permanent Marker^https://fonts.googleapis.com/css?family=Permanent+Marker">
      <root>
        <mxCell id="0" />
        <mxCell id="1" parent="0" />
        <mxCell id="jHlyaKHQGeWQ3azbFZf2-3" value="" style="rounded=0;whiteSpace=wrap;html=1;fillColor=default;" vertex="1" parent="1">
          <mxGeometry x="30" y="30" width="790" height="580" as="geometry" />
        </mxCell>
        <mxCell id="TnQWdsNaXbI5_NikPsE0-20" value="" style="shape=tableRow;horizontal=0;startSize=0;swimlaneHead=0;swimlaneBody=0;fillColor=none;collapsible=0;dropTarget=0;points=[[0,0.5],[1,0.5]];portConstraint=eastwest;top=0;left=0;right=0;bottom=0;" parent="1" vertex="1">
          <mxGeometry x="340" y="440" width="180" height="30" as="geometry" />
        </mxCell>
        <mxCell id="TnQWdsNaXbI5_NikPsE0-21" value="" style="shape=partialRectangle;connectable=0;fillColor=none;top=0;left=0;bottom=0;right=0;editable=1;overflow=hidden;whiteSpace=wrap;html=1;" parent="TnQWdsNaXbI5_NikPsE0-20" vertex="1">
          <mxGeometry width="30" height="30" as="geometry">
            <mxRectangle width="30" height="30" as="alternateBounds" />
          </mxGeometry>
        </mxCell>
        <mxCell id="TnQWdsNaXbI5_NikPsE0-25" value="User Model" style="swimlane;fontStyle=0;childLayout=stackLayout;horizontal=1;startSize=26;horizontalStack=0;resizeParent=1;resizeParentMax=0;resizeLast=0;collapsible=1;marginBottom=0;align=center;fontSize=14;fillColor=#dae8fc;strokeColor=#6c8ebf;" parent="1" vertex="1">
          <mxGeometry x="130" y="260" width="160" height="180" as="geometry" />
        </mxCell>
        <mxCell id="TnQWdsNaXbI5_NikPsE0-26" value="id" style="text;strokeColor=#d79b00;fillColor=#ffe6cc;spacingLeft=4;spacingRight=4;overflow=hidden;rotatable=0;points=[[0,0.5],[1,0.5]];portConstraint=eastwest;fontSize=13;whiteSpace=wrap;html=1;fontStyle=1" parent="TnQWdsNaXbI5_NikPsE0-25" vertex="1">
          <mxGeometry y="26" width="160" height="30" as="geometry" />
        </mxCell>
        <mxCell id="TnQWdsNaXbI5_NikPsE0-27" value="username" style="text;strokeColor=#d79b00;fillColor=#ffe6cc;spacingLeft=4;spacingRight=4;overflow=hidden;rotatable=0;points=[[0,0.5],[1,0.5]];portConstraint=eastwest;fontSize=13;whiteSpace=wrap;html=1;fontStyle=1;" parent="TnQWdsNaXbI5_NikPsE0-25" vertex="1">
          <mxGeometry y="56" width="160" height="30" as="geometry" />
        </mxCell>
        <mxCell id="TnQWdsNaXbI5_NikPsE0-30" value="password" style="text;strokeColor=#d79b00;fillColor=#ffe6cc;spacingLeft=4;spacingRight=4;overflow=hidden;rotatable=0;points=[[0,0.5],[1,0.5]];portConstraint=eastwest;fontSize=13;whiteSpace=wrap;html=1;fontStyle=1;" parent="TnQWdsNaXbI5_NikPsE0-25" vertex="1">
          <mxGeometry y="86" width="160" height="30" as="geometry" />
        </mxCell>
        <mxCell id="TnQWdsNaXbI5_NikPsE0-29" value="fullName" style="text;strokeColor=#d79b00;fillColor=#ffe6cc;spacingLeft=4;spacingRight=4;overflow=hidden;rotatable=0;points=[[0,0.5],[1,0.5]];portConstraint=eastwest;fontSize=13;whiteSpace=wrap;html=1;fontStyle=1;" parent="TnQWdsNaXbI5_NikPsE0-25" vertex="1">
          <mxGeometry y="116" width="160" height="30" as="geometry" />
        </mxCell>
        <mxCell id="TnQWdsNaXbI5_NikPsE0-28" value="phone" style="text;strokeColor=#d79b00;fillColor=#ffe6cc;spacingLeft=4;spacingRight=4;overflow=hidden;rotatable=0;points=[[0,0.5],[1,0.5]];portConstraint=eastwest;fontSize=13;whiteSpace=wrap;html=1;fontStyle=1;" parent="TnQWdsNaXbI5_NikPsE0-25" vertex="1">
          <mxGeometry y="146" width="160" height="34" as="geometry" />
        </mxCell>
        <mxCell id="TnQWdsNaXbI5_NikPsE0-31" value="Booking Model" style="swimlane;fontStyle=0;childLayout=stackLayout;horizontal=1;startSize=26;horizontalStack=0;resizeParent=1;resizeParentMax=0;resizeLast=0;collapsible=1;marginBottom=0;align=center;fontSize=14;fillColor=#dae8fc;strokeColor=#6c8ebf;" parent="1" vertex="1">
          <mxGeometry x="345" y="130" width="160" height="116" as="geometry" />
        </mxCell>
        <mxCell id="TnQWdsNaXbI5_NikPsE0-32" value="id" style="text;strokeColor=#d79b00;fillColor=#ffe6cc;spacingLeft=4;spacingRight=4;overflow=hidden;rotatable=0;points=[[0,0.5],[1,0.5]];portConstraint=eastwest;fontSize=13;whiteSpace=wrap;html=1;fontStyle=1;" parent="TnQWdsNaXbI5_NikPsE0-31" vertex="1">
          <mxGeometry y="26" width="160" height="30" as="geometry" />
        </mxCell>
        <mxCell id="TnQWdsNaXbI5_NikPsE0-33" value="userId" style="text;strokeColor=#d79b00;fillColor=#ffe6cc;spacingLeft=4;spacingRight=4;overflow=hidden;rotatable=0;points=[[0,0.5],[1,0.5]];portConstraint=eastwest;fontSize=13;whiteSpace=wrap;html=1;fontStyle=1;" parent="TnQWdsNaXbI5_NikPsE0-31" vertex="1">
          <mxGeometry y="56" width="160" height="30" as="geometry" />
        </mxCell>
        <mxCell id="TnQWdsNaXbI5_NikPsE0-34" value="movieId" style="text;strokeColor=#d79b00;fillColor=#ffe6cc;spacingLeft=4;spacingRight=4;overflow=hidden;rotatable=0;points=[[0,0.5],[1,0.5]];portConstraint=eastwest;fontSize=13;whiteSpace=wrap;html=1;fontStyle=1;" parent="TnQWdsNaXbI5_NikPsE0-31" vertex="1">
          <mxGeometry y="86" width="160" height="30" as="geometry" />
        </mxCell>
        <mxCell id="TnQWdsNaXbI5_NikPsE0-37" value="Movies Model" style="swimlane;fontStyle=0;childLayout=stackLayout;horizontal=1;startSize=26;horizontalStack=0;resizeParent=1;resizeParentMax=0;resizeLast=0;collapsible=1;marginBottom=0;align=center;fontSize=14;fillColor=#dae8fc;strokeColor=#6c8ebf;" parent="1" vertex="1">
          <mxGeometry x="560" y="260" width="160" height="240" as="geometry" />
        </mxCell>
        <mxCell id="TnQWdsNaXbI5_NikPsE0-38" value="id" style="text;strokeColor=#d79b00;fillColor=#ffe6cc;spacingLeft=4;spacingRight=4;overflow=hidden;rotatable=0;points=[[0,0.5],[1,0.5]];portConstraint=eastwest;fontSize=13;whiteSpace=wrap;html=1;fontStyle=1;" parent="TnQWdsNaXbI5_NikPsE0-37" vertex="1">
          <mxGeometry y="26" width="160" height="30" as="geometry" />
        </mxCell>
        <mxCell id="TnQWdsNaXbI5_NikPsE0-39" value="title" style="text;strokeColor=#d79b00;fillColor=#ffe6cc;spacingLeft=4;spacingRight=4;overflow=hidden;rotatable=0;points=[[0,0.5],[1,0.5]];portConstraint=eastwest;fontSize=13;whiteSpace=wrap;html=1;fontStyle=1;" parent="TnQWdsNaXbI5_NikPsE0-37" vertex="1">
          <mxGeometry y="56" width="160" height="30" as="geometry" />
        </mxCell>
        <mxCell id="TnQWdsNaXbI5_NikPsE0-40" value="director" style="text;strokeColor=#d79b00;fillColor=#ffe6cc;spacingLeft=4;spacingRight=4;overflow=hidden;rotatable=0;points=[[0,0.5],[1,0.5]];portConstraint=eastwest;fontSize=13;whiteSpace=wrap;html=1;fontStyle=1;" parent="TnQWdsNaXbI5_NikPsE0-37" vertex="1">
          <mxGeometry y="86" width="160" height="30" as="geometry" />
        </mxCell>
        <mxCell id="TnQWdsNaXbI5_NikPsE0-41" value="actors" style="text;strokeColor=#d79b00;fillColor=#ffe6cc;spacingLeft=4;spacingRight=4;overflow=hidden;rotatable=0;points=[[0,0.5],[1,0.5]];portConstraint=eastwest;fontSize=13;whiteSpace=wrap;html=1;fontStyle=1;" parent="TnQWdsNaXbI5_NikPsE0-37" vertex="1">
          <mxGeometry y="116" width="160" height="30" as="geometry" />
        </mxCell>
        <mxCell id="TnQWdsNaXbI5_NikPsE0-44" value="actors" style="text;strokeColor=#d79b00;fillColor=#ffe6cc;spacingLeft=4;spacingRight=4;overflow=hidden;rotatable=0;points=[[0,0.5],[1,0.5]];portConstraint=eastwest;fontSize=13;whiteSpace=wrap;html=1;fontStyle=1;" parent="TnQWdsNaXbI5_NikPsE0-37" vertex="1">
          <mxGeometry y="146" width="160" height="30" as="geometry" />
        </mxCell>
        <mxCell id="TnQWdsNaXbI5_NikPsE0-43" value="ratings" style="text;strokeColor=#d79b00;fillColor=#ffe6cc;spacingLeft=4;spacingRight=4;overflow=hidden;rotatable=0;points=[[0,0.5],[1,0.5]];portConstraint=eastwest;fontSize=13;whiteSpace=wrap;html=1;fontStyle=1;" parent="TnQWdsNaXbI5_NikPsE0-37" vertex="1">
          <mxGeometry y="176" width="160" height="30" as="geometry" />
        </mxCell>
        <mxCell id="TnQWdsNaXbI5_NikPsE0-42" value="ticket_price" style="text;strokeColor=#d79b00;fillColor=#ffe6cc;spacingLeft=4;spacingRight=4;overflow=hidden;rotatable=0;points=[[0,0.5],[1,0.5]];portConstraint=eastwest;fontSize=13;whiteSpace=wrap;html=1;fontStyle=1;" parent="TnQWdsNaXbI5_NikPsE0-37" vertex="1">
          <mxGeometry y="206" width="160" height="34" as="geometry" />
        </mxCell>
        <mxCell id="jHlyaKHQGeWQ3azbFZf2-1" value="" style="edgeStyle=orthogonalEdgeStyle;rounded=0;orthogonalLoop=1;jettySize=auto;html=1;" edge="1" parent="1" source="TnQWdsNaXbI5_NikPsE0-33" target="TnQWdsNaXbI5_NikPsE0-30">
          <mxGeometry relative="1" as="geometry" />
        </mxCell>
        <mxCell id="jHlyaKHQGeWQ3azbFZf2-2" value="" style="edgeStyle=orthogonalEdgeStyle;rounded=0;orthogonalLoop=1;jettySize=auto;html=1;exitX=1;exitY=0.5;exitDx=0;exitDy=0;entryX=0;entryY=0.5;entryDx=0;entryDy=0;" edge="1" parent="1" source="TnQWdsNaXbI5_NikPsE0-34" target="TnQWdsNaXbI5_NikPsE0-38">
          <mxGeometry relative="1" as="geometry">
            <mxPoint x="470" y="160" as="targetPoint" />
          </mxGeometry>
        </mxCell>
      </root>
    </mxGraphModel>
  </diagram>
</mxfile>
